<svg width="943.61" height="288" viewBox="0 0 943.61 288" xmlns="http://www.w3.org/2000/svg" xmlns:xlink="http://www.w3.org/1999/xlink" overflow="hidden"><defs></defs><g><linearGradient x1="-2.3414" y1="144" x2="291.203" y2="144" gradientUnits="userSpaceOnUse" id="SVGID_1_"><stop offset="0" stop-color="#6E87ED"/><stop offset="1" stop-color="#8AD7D1"/></linearGradient><path d="M144 288C64.6 288 0 223.4 0 144 0 140.61 0.15 137.09 0.46 132.93L0.79 128.53 31.89 128.53 31.42 133.72C31.09 137.36 30.93 140.72 30.93 144 30.93 206.34 81.65 257.06 143.99 257.06 183.99 257.06 220.41 236.28 240.82 202.32L226.61 202.32C207.63 229.2 176.93 245.16 143.99 245.16 88.21 245.16 42.83 199.78 42.83 144 42.83 140.37 43.04 136.59 43.46 132.77L43.93 128.53 212.47 128.53C205.35 96.96 176.83 73.79 143.98 73.79 117.02 73.79 92.11 89.54 80.53 113.92L79.24 116.64 2.51 116.64 3.89 110.78C19.31 45.55 76.92 0 144 0 223.4 0 288 64.6 288 144 288 147.39 287.85 150.91 287.54 155.07L287.21 159.47 256.11 159.47 256.58 154.28C256.91 150.64 257.07 147.28 257.07 144 257.07 81.66 206.35 30.94 144.01 30.94 104.01 30.94 67.59 51.72 47.18 85.68L61.39 85.68C80.36 58.81 111.05 42.84 144 42.84 199.78 42.84 245.16 88.22 245.16 144 245.16 147.63 244.95 151.41 244.53 155.23L244.06 159.47 75.51 159.47C82.63 191.04 111.15 214.21 144 214.21 170.96 214.21 195.87 198.46 207.45 174.08L208.74 171.36 285.48 171.36 284.1 177.22C268.69 242.45 211.08 288 144 288ZM9.68 138.05C9.58 140.16 9.52 142.1 9.52 144 9.52 218.15 69.85 278.48 144 278.48 204.62 278.48 256.95 238.65 273.32 180.89L214.69 180.89C201.02 207.01 173.6 223.73 144 223.73 104.59 223.73 70.66 194.35 65.09 155.38L64.31 149.95 235.44 149.95C235.57 147.93 235.64 145.94 235.64 144 235.64 93.47 194.53 52.36 144 52.36 113.38 52.36 84.91 67.59 67.83 93.09L66.42 95.2 31.3 95.2 34.84 88.27C55.92 47.04 97.75 21.42 144 21.42 211.59 21.42 266.58 76.41 266.58 144 266.58 145.95 266.53 147.92 266.42 149.95L278.32 149.95C278.42 147.84 278.48 145.9 278.48 144 278.48 69.85 218.15 9.52 144 9.52 83.38 9.52 31.05 49.35 14.68 107.11L73.31 107.11C86.98 80.98 114.4 64.26 144 64.26 183.41 64.26 217.34 93.64 222.91 132.61L223.69 138.04 52.57 138.04C52.44 140.06 52.37 142.05 52.37 143.99 52.37 194.52 93.48 235.63 144.01 235.63 174.63 235.63 203.1 220.4 220.18 194.9L221.59 192.79 256.71 192.79 253.17 199.72C232.09 240.96 190.26 266.58 144.01 266.58 76.42 266.58 21.43 211.59 21.43 144 21.43 142.05 21.48 140.08 21.59 138.05L9.68 138.05Z" fill="url(#SVGID_1_)"/><g><g><g><path d="M756.68 265.01 756.68 251.66C756.68 251.44 756.51 251.27 756.29 251.27L741.5 251.27C741.28 251.27 741.11 251.44 741.11 251.66L741.11 265.01C741.11 265.23 740.94 265.4 740.72 265.4L737.31 265.4C737.09 265.4 736.92 265.23 736.92 265.01L736.92 234.4C736.92 234.18 737.09 234.01 737.31 234.01L740.72 234.01C740.94 234.01 741.11 234.18 741.11 234.4L741.11 247.35C741.11 247.57 741.28 247.74 741.5 247.74L756.29 247.74C756.51 247.74 756.68 247.57 756.68 247.35L756.68 234.4C756.68 234.18 756.85 234.01 757.07 234.01L760.48 234.01C760.7 234.01 760.87 234.18 760.87 234.4L760.87 265.01C760.87 265.23 760.7 265.4 760.48 265.4L757.07 265.4C756.85 265.4 756.68 265.23 756.68 265.01Z" fill="#6E87ED"/><path d="M779.62 265.01 779.62 234.4C779.62 234.18 779.79 234.01 780.01 234.01L798.5 234.01C798.72 234.01 798.89 234.18 798.89 234.4L798.89 237.15C798.89 237.37 798.72 237.54 798.5 237.54L784.19 237.54C783.97 237.54 783.8 237.71 783.8 237.93L783.8 247.35C783.8 247.57 783.97 247.74 784.19 247.74L796.14 247.74C796.36 247.74 796.53 247.91 796.53 248.13L796.53 250.88C796.53 251.1 796.36 251.27 796.14 251.27L784.19 251.27C783.97 251.27 783.8 251.44 783.8 251.66L783.8 261.47C783.8 261.69 783.97 261.86 784.19 261.86L799.15 261.86C799.37 261.86 799.54 262.03 799.54 262.25L799.54 265C799.54 265.22 799.37 265.39 799.15 265.39L780 265.39C779.79 265.4 779.62 265.23 779.62 265.01Z" fill="#6E87ED"/><path d="M826.23 233.49 826.32 233.49 840.55 264.85C840.67 265.11 840.48 265.4 840.19 265.4L836.6 265.4C836.45 265.4 836.31 265.31 836.24 265.17L833.35 258.66C833.29 258.52 833.15 258.43 832.99 258.43L819.5 258.43C819.35 258.43 819.2 258.52 819.14 258.66L816.29 265.17C816.23 265.31 816.09 265.4 815.93 265.4L812.34 265.4C812.06 265.4 811.87 265.11 811.98 264.85L826.23 233.49ZM831.48 254.43C829.61 250.23 828.14 246.8 826.64 242.92 826.51 242.59 826.04 242.59 825.91 242.92 824.37 246.8 822.9 250.23 821.03 254.43 820.92 254.69 821.1 254.98 821.38 254.98L831.12 254.98C831.41 254.98 831.59 254.69 831.48 254.43Z" fill="#6E87ED"/><path d="M855.4 265.01 855.4 234.4C855.4 234.18 855.57 234.01 855.79 234.01L859.2 234.01C859.42 234.01 859.59 234.18 859.59 234.4L859.59 261.48C859.59 261.7 859.76 261.87 859.98 261.87L872.72 261.87C872.94 261.87 873.11 262.04 873.11 262.26L873.11 265.01C873.11 265.23 872.94 265.4 872.72 265.4L855.8 265.4C855.58 265.4 855.4 265.23 855.4 265.01Z" fill="#6E87ED"/><path d="M895.04 237.93 895.04 265.01C895.04 265.23 894.87 265.4 894.65 265.4L891.24 265.4C891.02 265.4 890.85 265.23 890.85 265.01L890.85 237.93C890.85 237.71 890.68 237.54 890.46 237.54L881.69 237.54C881.47 237.54 881.3 237.37 881.3 237.15L881.3 234.4C881.3 234.18 881.47 234.01 881.69 234.01L904.24 234.01C904.46 234.01 904.63 234.18 904.63 234.4L904.63 237.15C904.63 237.37 904.46 237.54 904.24 237.54L895.43 237.54C895.21 237.54 895.04 237.72 895.04 237.93Z" fill="#6E87ED"/><path d="M939.42 265.01 939.42 251.66C939.42 251.44 939.25 251.27 939.03 251.27L924.24 251.27C924.02 251.27 923.85 251.44 923.85 251.66L923.85 265.01C923.85 265.23 923.68 265.4 923.46 265.4L920.05 265.4C919.83 265.4 919.66 265.23 919.66 265.01L919.66 234.4C919.66 234.18 919.83 234.01 920.05 234.01L923.46 234.01C923.68 234.01 923.85 234.18 923.85 234.4L923.85 247.35C923.85 247.57 924.02 247.74 924.24 247.74L939.03 247.74C939.25 247.74 939.42 247.57 939.42 247.35L939.42 234.4C939.42 234.18 939.59 234.01 939.81 234.01L943.22 234.01C943.44 234.01 943.61 234.18 943.61 234.4L943.61 265.01C943.61 265.23 943.44 265.4 943.22 265.4L939.81 265.4C939.6 265.4 939.42 265.23 939.42 265.01Z" fill="#6E87ED"/></g></g><path d="M646.86 81C612.06 81 583.86 109.2 583.86 144 583.86 178.8 612.06 207 646.86 207 681.66 207 709.86 178.8 709.86 144 709.86 109.2 681.66 81 646.86 81ZM646.86 189C622 189 601.86 168.86 601.86 144 601.86 119.14 622 99 646.86 99 671.72 99 691.86 119.14 691.86 144 691.86 168.86 671.72 189 646.86 189ZM756.37 189 825.49 189C826.29 189 826.93 189.64 826.93 190.44L826.93 205.56C826.93 206.36 826.29 207 825.49 207L738.37 207C737.57 207 736.93 206.36 736.93 205.56L736.93 189 736.93 82.44C736.93 81.64 737.57 81 738.37 81L753.49 81C754.29 81 754.93 81.64 754.93 82.44L754.93 187.56C754.93 188.36 755.57 189 756.37 189ZM423.68 171C423.24 171 422.83 171.21 422.56 171.55 414.33 182.16 401.47 189 387 189 365.85 189 348.11 174.42 343.29 154.76 343.07 153.86 343.78 153 344.7 153L378 153 431.1 153 448.08 153C448.81 153 449.44 152.46 449.53 151.74 449.84 149.21 450 146.63 450 144 450 140.94 449.78 137.94 449.36 135 445 104.46 418.74 81 387 81 355.26 81 329 104.46 324.64 135 324.22 137.94 324 140.94 324 144 324 147.06 324.22 150.06 324.64 153 329 183.54 355.26 207 387 207 411.3 207 432.37 193.24 442.88 173.09 443.38 172.14 442.66 171 441.58 171L423.68 171ZM387 99C408.15 99 425.89 113.58 430.71 133.24 430.93 134.14 430.22 135 429.3 135L344.71 135C343.79 135 343.08 134.13 343.3 133.24 348.11 113.58 365.85 99 387 99ZM573.74 82.97C574.79 82.97 575.49 84.06 575.05 85.02L527.19 187.67 518.57 206.17C518.05 207.28 516.48 207.28 515.96 206.17L507.33 187.67 459.46 85.02C459.01 84.07 459.71 82.97 460.77 82.97L477.45 82.97C478.01 82.97 478.52 83.29 478.76 83.8L515.97 163.57C516.49 164.68 518.06 164.68 518.58 163.57L555.77 83.8C556.01 83.29 556.52 82.97 557.08 82.97L573.74 82.97ZM942.17 82.97C943.22 82.97 943.92 84.06 943.48 85.02L895.62 187.67 887 206.17C886.48 207.28 884.91 207.28 884.39 206.17L875.76 187.67 827.88 85.02C827.43 84.07 828.13 82.97 829.19 82.97L845.87 82.97C846.43 82.97 846.94 83.29 847.17 83.8L884.38 163.57C884.9 164.68 886.47 164.68 886.99 163.57L924.18 83.8C924.42 83.29 924.93 82.97 925.49 82.97L942.17 82.97Z" fill="#131D43"/></g></g></svg>