<svg width="619.61" height="607.75" viewBox="0 0 619.61 607.75" xmlns="http://www.w3.org/2000/svg" xmlns:xlink="http://www.w3.org/1999/xlink" overflow="hidden"><defs></defs><g><linearGradient x1="118.927" y1="187.45" x2="502.05" y2="187.45" gradientUnits="userSpaceOnUse" id="SVGID_1_"><stop offset="0" stop-color="#6E87ED"/><stop offset="1" stop-color="#8AD7D1"/></linearGradient><path d="M309.81 374.9C206.45 374.9 122.36 290.81 122.36 187.45 122.36 183.04 122.55 178.45 122.97 173.04L123.41 167.32 163.89 167.32 163.28 174.07C162.85 178.81 162.64 183.18 162.64 187.46 162.64 268.61 228.66 334.63 309.81 334.63 361.88 334.63 409.29 307.57 435.86 263.37L417.36 263.37C392.65 298.36 352.69 319.14 309.8 319.14 237.19 319.14 178.12 260.07 178.12 187.46 178.12 182.73 178.4 177.81 178.95 172.84L179.56 167.32 398.96 167.32C389.69 126.22 352.57 96.06 309.81 96.06 274.71 96.06 242.29 116.56 227.21 148.29L225.53 151.83 125.63 151.83 127.43 144.21C147.49 59.3 222.49 0 309.81 0 413.17 0 497.26 84.09 497.26 187.45 497.26 191.86 497.07 196.45 496.65 201.86L496.21 207.58 455.73 207.58 456.34 200.83C456.77 196.09 456.98 191.72 456.98 187.44 456.98 106.29 390.96 40.27 309.81 40.27 257.74 40.27 210.33 67.33 183.76 111.53L202.26 111.53C226.97 76.54 266.93 55.76 309.82 55.76 382.43 55.76 441.5 114.83 441.5 187.44 441.5 192.17 441.22 197.09 440.67 202.06L440.06 207.58 220.66 207.58C229.93 248.68 267.05 278.84 309.81 278.84 344.91 278.84 377.33 258.34 392.41 226.61L394.09 223.07 493.99 223.07 492.19 230.69C472.12 315.6 397.12 374.9 309.81 374.9ZM134.95 179.7C134.81 182.44 134.75 184.98 134.75 187.45 134.75 283.98 213.28 362.51 309.81 362.51 388.71 362.51 456.85 310.67 478.15 235.48L401.84 235.48C384.05 269.49 348.35 291.25 309.82 291.25 258.52 291.25 214.36 253 207.1 202.28L206.09 195.21 428.85 195.21C429.03 192.58 429.11 189.99 429.11 187.46 429.11 121.69 375.6 68.17 309.82 68.17 269.96 68.17 232.9 87.99 210.67 121.19L208.83 123.94 163.1 123.94 167.71 114.92C195.15 61.24 249.6 27.89 309.8 27.89 397.79 27.89 469.36 99.47 469.36 187.45 469.36 189.99 469.29 192.56 469.16 195.2L484.65 195.2C484.79 192.46 484.85 189.92 484.85 187.45 484.85 90.92 406.32 12.39 309.79 12.39 230.89 12.39 162.75 64.23 141.45 139.42L217.76 139.42C235.55 105.41 271.25 83.65 309.78 83.65 361.08 83.65 405.24 121.9 412.5 172.62L413.51 179.69 190.78 179.69C190.6 182.32 190.52 184.91 190.52 187.44 190.52 253.21 244.03 306.73 309.81 306.73 349.67 306.73 386.73 286.91 408.96 253.71L410.8 250.96 456.52 250.96 451.91 259.98C424.47 313.66 370.02 347.01 309.82 347.01 221.83 347.01 150.26 275.43 150.26 187.45 150.26 184.91 150.33 182.34 150.46 179.7L134.95 179.7Z" fill="url(#SVGID_1_)"/><g><g><path d="M226.21 607.36 226.21 594.01C226.21 593.79 226.04 593.62 225.82 593.62L211.03 593.62C210.81 593.62 210.64 593.79 210.64 594.01L210.64 607.36C210.64 607.58 210.47 607.75 210.25 607.75L206.84 607.75C206.62 607.75 206.45 607.58 206.45 607.36L206.45 576.75C206.45 576.53 206.62 576.36 206.84 576.36L210.25 576.36C210.47 576.36 210.64 576.53 210.64 576.75L210.64 589.7C210.64 589.92 210.81 590.09 211.03 590.09L225.82 590.09C226.04 590.09 226.21 589.92 226.21 589.7L226.21 576.75C226.21 576.53 226.38 576.36 226.6 576.36L230.01 576.36C230.23 576.36 230.4 576.53 230.4 576.75L230.4 607.36C230.4 607.58 230.23 607.75 230.01 607.75L226.6 607.75C226.39 607.75 226.21 607.58 226.21 607.36Z" fill="#6E87ED"/><path d="M249.15 607.36 249.15 576.75C249.15 576.53 249.32 576.36 249.54 576.36L268.03 576.36C268.25 576.36 268.42 576.53 268.42 576.75L268.42 579.5C268.42 579.72 268.25 579.89 268.03 579.89L253.72 579.89C253.5 579.89 253.33 580.06 253.33 580.28L253.33 589.7C253.33 589.92 253.5 590.09 253.72 590.09L265.67 590.09C265.89 590.09 266.06 590.26 266.06 590.48L266.06 593.23C266.06 593.45 265.89 593.62 265.67 593.62L253.72 593.62C253.5 593.62 253.33 593.79 253.33 594.01L253.33 603.82C253.33 604.04 253.5 604.21 253.72 604.21L268.68 604.21C268.9 604.21 269.07 604.38 269.07 604.6L269.07 607.35C269.07 607.57 268.9 607.74 268.68 607.74L249.53 607.74C249.33 607.75 249.15 607.58 249.15 607.36Z" fill="#6E87ED"/><path d="M295.76 575.84 295.85 575.84 310.08 607.2C310.2 607.46 310.01 607.75 309.72 607.75L306.13 607.75C305.98 607.75 305.84 607.66 305.77 607.52L302.88 601.01C302.82 600.87 302.68 600.78 302.52 600.78L289.03 600.78C288.88 600.78 288.73 600.87 288.67 601.01L285.82 607.52C285.76 607.66 285.62 607.75 285.46 607.75L281.87 607.75C281.59 607.75 281.4 607.46 281.51 607.2L295.76 575.84ZM301.01 596.78C299.14 592.58 297.67 589.15 296.17 585.27 296.04 584.94 295.57 584.94 295.44 585.27 293.9 589.15 292.43 592.58 290.56 596.78 290.45 597.04 290.63 597.33 290.91 597.33L300.65 597.33C300.94 597.33 301.13 597.04 301.01 596.78Z" fill="#6E87ED"/><path d="M324.94 607.36 324.94 576.75C324.94 576.53 325.11 576.36 325.33 576.36L328.74 576.36C328.96 576.36 329.13 576.53 329.13 576.75L329.13 603.83C329.13 604.05 329.3 604.22 329.52 604.22L342.26 604.22C342.48 604.22 342.65 604.39 342.65 604.61L342.65 607.36C342.65 607.58 342.48 607.75 342.26 607.75L325.34 607.75C325.11 607.75 324.94 607.58 324.94 607.36Z" fill="#6E87ED"/><path d="M364.57 580.28 364.57 607.36C364.57 607.58 364.4 607.75 364.18 607.75L360.77 607.75C360.55 607.75 360.38 607.58 360.38 607.36L360.38 580.28C360.38 580.06 360.21 579.89 359.99 579.89L351.22 579.89C351 579.89 350.83 579.72 350.83 579.5L350.83 576.75C350.83 576.53 351 576.36 351.22 576.36L373.77 576.36C373.99 576.36 374.16 576.53 374.16 576.75L374.16 579.5C374.16 579.72 373.99 579.89 373.77 579.89L364.96 579.89C364.75 579.89 364.57 580.07 364.57 580.28Z" fill="#6E87ED"/><path d="M408.96 607.36 408.96 594.01C408.96 593.79 408.79 593.62 408.57 593.62L393.78 593.62C393.56 593.62 393.39 593.79 393.39 594.01L393.39 607.36C393.39 607.58 393.22 607.75 393 607.75L389.59 607.75C389.37 607.75 389.2 607.58 389.2 607.36L389.2 576.75C389.2 576.53 389.37 576.36 389.59 576.36L393 576.36C393.22 576.36 393.39 576.53 393.39 576.75L393.39 589.7C393.39 589.92 393.56 590.09 393.78 590.09L408.57 590.09C408.79 590.09 408.96 589.92 408.96 589.7L408.96 576.75C408.96 576.53 409.13 576.36 409.35 576.36L412.76 576.36C412.98 576.36 413.15 576.53 413.15 576.75L413.15 607.36C413.15 607.58 412.98 607.75 412.76 607.75L409.35 607.75C409.13 607.75 408.96 607.58 408.96 607.36Z" fill="#6E87ED"/></g></g><path d="M322.86 414.35C288.06 414.35 259.86 442.55 259.86 477.35 259.86 512.15 288.06 540.35 322.86 540.35 357.66 540.35 385.86 512.15 385.86 477.35 385.86 442.55 357.66 414.35 322.86 414.35ZM322.86 522.35C298 522.35 277.86 502.21 277.86 477.35 277.86 452.49 298 432.35 322.86 432.35 347.72 432.35 367.86 452.49 367.86 477.35 367.86 502.21 347.72 522.35 322.86 522.35ZM432.37 522.35 501.49 522.35C502.29 522.35 502.93 522.99 502.93 523.79L502.93 538.91C502.93 539.71 502.29 540.35 501.49 540.35L414.37 540.35C413.57 540.35 412.93 539.71 412.93 538.91L412.93 522.35 412.93 415.79C412.93 414.99 413.57 414.35 414.37 414.35L429.49 414.35C430.29 414.35 430.93 414.99 430.93 415.79L430.93 520.91C430.93 521.7 431.57 522.35 432.37 522.35ZM99.68 504.35C99.24 504.35 98.83 504.56 98.56 504.9 90.33 515.51 77.48 522.35 63 522.35 41.85 522.35 24.11 507.77 19.29 488.11 19.07 487.21 19.78 486.35 20.7 486.35L54 486.35 107.1 486.35 124.08 486.35C124.81 486.35 125.44 485.81 125.53 485.09 125.84 482.56 126 479.98 126 477.35 126 474.29 125.78 471.29 125.36 468.35 121 437.81 94.74 414.35 63 414.35 31.26 414.35 5 437.81 0.64 468.35 0.22 471.29 5.55112e-16 474.29 5.55112e-16 477.35 5.55112e-16 480.41 0.22 483.41 0.64 486.35 5 516.89 31.26 540.35 63 540.35 87.3 540.35 108.37 526.59 118.88 506.44 119.38 505.49 118.66 504.35 117.58 504.35L99.68 504.35ZM63 432.35C84.15 432.35 101.89 446.93 106.71 466.59 106.93 467.49 106.22 468.35 105.3 468.35L20.71 468.35C19.79 468.35 19.08 467.48 19.3 466.59 24.11 446.93 41.85 432.35 63 432.35ZM249.74 416.32C250.79 416.32 251.49 417.41 251.05 418.37L203.19 521.02 194.57 539.52C194.05 540.63 192.48 540.63 191.96 539.52L183.33 521.02 135.47 418.37C135.02 417.42 135.72 416.32 136.78 416.32L153.46 416.32C154.02 416.32 154.53 416.64 154.77 417.15L191.98 496.92C192.5 498.03 194.07 498.03 194.59 496.92L231.78 417.15C232.02 416.64 232.53 416.32 233.09 416.32L249.74 416.32ZM618.17 416.32C619.22 416.32 619.92 417.41 619.48 418.37L571.62 521.02 563 539.52C562.48 540.63 560.91 540.63 560.39 539.52L551.76 521.02 503.9 418.37C503.45 417.42 504.15 416.32 505.21 416.32L521.89 416.32C522.45 416.32 522.96 416.64 523.19 417.15L560.4 496.92C560.92 498.03 562.49 498.03 563.01 496.92L600.2 417.15C600.44 416.64 600.95 416.32 601.51 416.32L618.17 416.32Z" fill="#131D43"/></g></svg>