<?xml version="1.0" encoding="UTF-8"?>
<svg id="Layer_1" data-name="Layer 1" xmlns="http://www.w3.org/2000/svg" viewBox="0 0 151.2 221.39">
  <path d="M134.65,221.39c-5.37,0-10.42-2.61-13.51-6.98l-20.03-28.21-20.03,28.21c-3.1,4.37-8.16,6.97-13.51,6.97-3.45,0-6.76-1.06-9.58-3.06-7.44-5.29-9.2-15.65-3.91-23.09l26.73-37.64-31.98-45.04h-15.68v54.6c0,9.13-7.43,16.56-16.56,16.56S0,176.3,0,167.16V16.56C0,7.43,7.43,0,16.56,0h39.72c16.69,0,32.42,7.34,43.15,20.15,8.46,10.1,13.13,22.93,13.13,36.13,0,20.14-11.03,38.85-28.43,48.82l16.97,23.89,20.03-28.21c2.56-3.61,6.37-6,10.74-6.74,4.37-.74,8.75.27,12.36,2.83,3.6,2.56,6,6.37,6.74,10.74.74,4.36-.26,8.75-2.83,12.36l-26.73,37.64,26.73,37.64c5.29,7.45,3.53,17.81-3.91,23.09-2.82,2-6.13,3.06-9.58,3.06ZM101.1,176.17c1.19,0,2.31.58,3,1.55l23.03,32.44c2.82,3.98,8.81,5.02,12.83,2.17,2.01-1.42,3.34-3.54,3.75-5.96.41-2.42-.15-4.86-1.57-6.86l-28.24-39.77c-.91-1.28-.91-2.99,0-4.26l28.24-39.77c1.42-2,1.98-4.44,1.57-6.86-.41-2.42-1.74-4.54-3.75-5.96s-4.46-1.99-6.86-1.57c-2.43.41-4.54,1.74-5.97,3.74l-23.03,32.44c-1.38,1.94-4.62,1.94-6,0l-22.41-31.56c-.63-.89-.83-2.01-.56-3.06.28-1.05,1-1.93,1.99-2.39,17.06-8.09,28.08-25.43,28.08-44.19,0-11.47-4.05-22.62-11.41-31.4-9.33-11.13-23-17.52-37.51-17.52H16.56c-5.07,0-9.2,4.13-9.2,9.2v150.6c0,5.07,4.13,9.2,9.2,9.2s9.2-4.13,9.2-9.2v-58.28c0-2.03,1.65-3.68,3.68-3.68h21.27c1.19,0,2.31.58,3,1.55l34.6,48.72c.91,1.28.91,2.99,0,4.26l-28.24,39.77c-1.42,2-1.98,4.44-1.57,6.86s1.74,4.54,3.75,5.96c4,2.85,10,1.81,12.83-2.17l23.03-32.44c.69-.97,1.81-1.55,3-1.55ZM56.28,86.8h-26.84c-2.03,0-3.68-1.65-3.68-3.68V29.44c0-2.03,1.65-3.68,3.68-3.68h26.84c9.05,0,17.58,3.99,23.41,10.93,4.59,5.48,7.11,12.43,7.11,19.58,0,16.83-13.69,30.52-30.52,30.52ZM33.12,79.44h23.16c12.77,0,23.16-10.39,23.16-23.16,0-5.43-1.92-10.7-5.39-14.86-4.42-5.27-10.9-8.3-17.77-8.3h-23.16v46.32Z"/>
</svg>