<svg width="800.4" height="216.12" viewBox="0 0 800.4 216.12" xmlns="http://www.w3.org/2000/svg" xmlns:xlink="http://www.w3.org/1999/xlink" overflow="hidden"><defs></defs><g><path d="M0.35 116.37C0.14 113.63 0 110.86 0 108.06 0 48.38 48.38 0 108.06 0 159.15 0 201.93 35.47 213.2 83.12L160.64 83.12C151.3 63.46 131.27 49.87 108.06 49.87 78.75 49.87 54.51 71.55 50.47 99.74L182.4 99.74C182.7 102.47 182.87 105.24 182.87 108.05 182.87 149.37 149.38 182.86 108.06 182.86 82.13 182.86 59.3 169.65 45.88 149.61L26.64 149.61C41.77 179.21 72.54 199.48 108.06 199.48 158.56 199.48 199.5 158.54 199.5 108.04 199.5 105.24 199.35 102.47 199.11 99.73L215.78 99.73C215.99 102.48 216.13 105.24 216.13 108.04 216.13 167.72 167.75 216.1 108.07 216.1 56.98 216.1 14.2 180.63 2.93 132.98L55.49 132.98C64.83 152.64 84.86 166.23 108.07 166.23 137.38 166.23 161.62 144.55 165.66 116.36L33.72 116.36C33.42 113.63 33.25 110.86 33.25 108.05 33.25 66.73 66.74 33.24 108.06 33.24 133.99 33.24 156.82 46.45 170.24 66.49L189.48 66.49C174.35 36.89 143.58 16.62 108.06 16.62 57.56 16.62 16.62 57.56 16.62 108.06 16.62 110.86 16.77 113.63 17.01 116.37L0.35 116.37Z" fill="#6E87ED"/><g><g><path d="M243.16 136.36 243.16 125.95 255.87 125.95 255.87 136.49C255.87 141.76 257.9 143.79 263.31 143.79L289.54 143.79C294.95 143.79 296.98 141.76 296.98 136.49L296.98 125.13C296.98 119.32 294.55 117.56 288.87 116.21L262.91 110.4C251.82 107.97 243.44 104.59 243.44 91.07L243.44 79.58C243.44 66.74 249.52 60.65 262.37 60.65L289.54 60.65C302.38 60.65 308.47 66.73 308.47 79.58L308.47 88.91 295.63 88.91 295.63 79.45C295.63 74.18 293.6 72.15 288.33 72.15L263.73 72.15C258.46 72.15 256.43 74.18 256.43 79.45L256.43 89.32C256.43 95.13 258.86 96.89 264.4 98.11L290.49 104.06C301.44 106.49 309.96 109.87 309.96 123.39L309.96 136.37C309.96 149.21 303.88 155.3 291.03 155.3L262.1 155.3C249.24 155.29 243.16 149.2 243.16 136.36Z" fill="#6E87ED"/><path d="M344.28 60.65 405.52 60.65 405.52 72.55 357.26 72.55 357.26 100.94 397.41 100.94 397.41 112.84 357.26 112.84 357.26 143.39 405.52 143.39 405.52 155.29 344.28 155.29 344.28 60.65Z" fill="#6E87ED"/><path d="M438.23 60.65 452.29 60.65 497.31 134.33 497.31 60.65 509.75 60.65 509.75 155.28 496.77 155.28 450.67 80.12 450.67 155.28 438.23 155.28 438.23 60.65Z" fill="#6E87ED"/><path d="M544.36 136.36 544.36 125.95 557.07 125.95 557.07 136.49C557.07 141.76 559.1 143.79 564.51 143.79L590.74 143.79C596.15 143.79 598.18 141.76 598.18 136.49L598.18 125.13C598.18 119.32 595.75 117.56 590.07 116.21L564.11 110.4C553.02 107.97 544.64 104.59 544.64 91.07L544.64 79.58C544.64 66.74 550.72 60.65 563.57 60.65L590.74 60.65C603.58 60.65 609.67 66.73 609.67 79.58L609.67 88.91 596.83 88.91 596.83 79.45C596.83 74.18 594.8 72.15 589.53 72.15L564.93 72.15C559.66 72.15 557.63 74.18 557.63 79.45L557.63 89.32C557.63 95.13 560.06 96.89 565.6 98.11L591.69 104.06C602.64 106.49 611.16 109.87 611.16 123.39L611.16 136.37C611.16 149.21 605.08 155.3 592.23 155.3L563.3 155.3C550.44 155.29 544.36 149.2 544.36 136.36Z" fill="#6E87ED"/><path d="M665.89 122.16 633.18 60.65 647.24 60.65 672.52 108.91 697.8 60.65 711.59 60.65 678.87 122.16 678.87 155.28 665.89 155.28 665.89 122.16Z" fill="#6E87ED"/><path d="M733.62 136.36 733.62 125.95 746.33 125.95 746.33 136.49C746.33 141.76 748.36 143.79 753.77 143.79L780 143.79C785.41 143.79 787.44 141.76 787.44 136.49L787.44 125.13C787.44 119.32 785.01 117.56 779.33 116.21L753.37 110.4C742.28 107.97 733.9 104.59 733.9 91.07L733.9 79.58C733.9 66.74 739.98 60.65 752.83 60.65L780 60.65C792.84 60.65 798.93 66.73 798.93 79.58L798.93 88.91 786.09 88.91 786.09 79.45C786.09 74.18 784.06 72.15 778.79 72.15L754.19 72.15C748.92 72.15 746.89 74.18 746.89 79.45L746.89 89.32C746.89 95.13 749.32 96.89 754.86 98.11L780.95 104.06C791.9 106.49 800.42 109.87 800.42 123.39L800.42 136.37C800.42 149.21 794.34 155.3 781.49 155.3L752.56 155.3C739.71 155.29 733.62 149.2 733.62 136.36Z" fill="#6E87ED"/></g></g><g><g><path d="M631.72 175.51 643.44 175.51C646.64 175.51 648.16 177.03 648.16 180.22L648.16 183.45C648.16 185.3 647.35 186.41 645.97 187.02 647.62 187.59 648.43 188.77 648.43 190.62L648.43 194.36C648.43 197.56 646.91 199.07 643.71 199.07L631.72 199.07 631.72 175.51ZM643.07 185.57C644.42 185.57 644.92 185.07 644.92 183.75L644.92 180.28C644.92 178.93 644.41 178.43 643.07 178.43L634.95 178.43 634.95 185.57 643.07 185.57ZM643.34 196.15C644.69 196.15 645.19 195.65 645.19 194.3L645.19 190.29C645.19 188.94 644.69 188.44 643.34 188.44L634.95 188.44 634.95 196.15 643.34 196.15Z" fill="#6E87ED"/><path d="M661.87 190.83 653.72 175.51 657.22 175.51 663.52 187.53 669.82 175.51 673.26 175.51 665.11 190.83 665.11 199.08 661.88 199.08 661.88 190.83Z" fill="#6E87ED"/><path d="M690.92 175.51 706.18 175.51 706.18 178.47 694.16 178.47 694.16 185.54 704.16 185.54 704.16 188.5 694.16 188.5 694.16 196.11 706.18 196.11 706.18 199.07 690.92 199.07 690.92 175.51Z" fill="#6E87ED"/><path d="M712.18 175.51 715.72 175.51 721.92 195.51 728.22 175.51 731.62 175.51 723.77 199.08 720.03 199.08 712.18 175.51Z" fill="#6E87ED"/><path d="M737.93 194.36 737.93 180.22C737.93 177.02 739.44 175.51 742.64 175.51L750.48 175.51C753.68 175.51 755.2 177.03 755.2 180.22L755.2 194.36C755.2 197.56 753.68 199.07 750.48 199.07L742.64 199.07C739.44 199.08 737.93 197.56 737.93 194.36ZM750.12 196.11C751.47 196.11 751.97 195.61 751.97 194.26L751.97 180.32C751.97 178.97 751.47 178.47 750.12 178.47L742.98 178.47C741.67 178.47 741.16 178.97 741.16 180.32L741.16 194.26C741.16 195.61 741.66 196.11 742.98 196.11L750.12 196.11Z" fill="#6E87ED"/><path d="M764.04 175.51 767.27 175.51 767.27 196.12 778.45 196.12 778.45 199.08 764.04 199.08 764.04 175.51Z" fill="#6E87ED"/><path d="M780.88 175.51 784.42 175.51 790.62 195.51 796.92 175.51 800.32 175.51 792.47 199.08 788.73 199.08 780.88 175.51Z" fill="#6E87ED"/></g></g></g></svg>