<?xml version="1.0" encoding="UTF-8"?>
<svg id="Layer_2" xmlns="http://www.w3.org/2000/svg" version="1.1" viewBox="0 0 221 216.1">
  <!-- Generator: Adobe Illustrator 29.8.4, SVG Export Plug-In . SVG Version: 2.1.1 Build 6)  -->
  <defs>
    <style>
      .st0 {
        fill: #6e87ed;
      }
    </style>
  </defs>
  <path class="st0" d="M14.3,115.5c-.2-2.4-.3-4.9-.3-7.4C14,55,57.2,12,110.5,12s83.9,31.5,93.9,73.9h-46.9c-8.3-17.5-26.2-29.6-47-29.6s-47.8,19.3-51.4,44.3h117.8c.3,2.4.4,4.9.4,7.4,0,36.7-29.9,66.5-66.8,66.5s-43.6-11.7-55.5-29.6h-17.2c13.5,26.3,41,44.3,72.7,44.3,45.1,0,81.7-36.4,81.7-81.3s-.1-5-.3-7.4h14.9c.2,2.4.3,4.9.3,7.4,0,53.1-43.2,96.1-96.5,96.1s-83.9-31.5-93.9-73.9h46.9c8.3,17.5,26.2,29.6,47,29.6s47.8-19.3,51.4-44.3H44.1c-.3-2.4-.4-4.9-.4-7.4,0-36.7,29.9-66.5,66.8-66.5s43.6,11.7,55.5,29.6h17.2c-13.5-26.3-41-44.3-72.7-44.3-45.1,0-81.7,36.4-81.7,81.3s.1,5,.3,7.4h-14.9Z"/>
</svg>
